<svg xmlns="http://www.w3.org/2000/svg" viewBox="0 0 1000 1000" >
	<g transform="translate(0,511) scale(0.1,-0.1)">
	<path d="M4597.4,4993c-92.1-9.8-268.5-41.2-392-68.6c-1264.1-284.2-2285.1-1230.8-2655.5-2465.4c-119.5-395.9-139.1-552.7-139.1-1099.5c2-507.6,21.6-703.6,111.7-1117.1C1887-1433.2,3060.9-3204.9,4752.2-4627.7c245-205.8,227.3-201.9,395.9-66.6C6427.8-3661.5,7572.4-2183.8,8117.2-857c429.2,1044.6,576.2,2146,397.8,2998.5C8238.7,3480,7211.8,4559.8,5898.7,4896.9C5520.5,4994.9,4965.8,5036.1,4597.4,4993z M5420.5,4218.8c531.1-90.2,1038.7-344.9,1434.6-713.4c339-317.5,595.8-709.5,742.8-1136.7c92.1-264.6,133.3-493.9,147-803.5c31.4-811.3-254.8-1534.5-832.9-2108.7c-392-388-899.6-654.6-1464-764.3c-243-49-756.5-49-999.5,0C3292.2-1080.5,2441.6-239.7,2190.7,920.5c-50.9,233.2-49,840.7,2,1075.9c123.5,570.3,368.4,1023,776.1,1432.6c456.6,456.6,960.3,709.4,1626.6,809.4C4740.4,4260,5252,4248.2,5420.5,4218.8z"/><path d="M4536.6,3170.3c-105.8-43.1-172.5-141.1-194-290l-11.8-90.2l-127.4-11.8c-148.9-13.7-264.6-66.6-348.8-162.7c-60.8-70.6-101.9-180.3-260.7-721.2c-62.7-215.6-70.6-231.3-115.6-231.3c-80.4-2-205.8-68.6-256.7-139.1c-45.1-64.7-47-76.4-47-460.6v-392l52.9-80.4c90.1-135.2,158.7-156.8,682-201.9c874.1-74.5,1415-72.5,2287.1,9.8c317.5,31.4,380.2,47,454.7,113.7c101.9,94.1,119.5,170.5,119.5,548.7c0,374.3-11.7,435.1-103.9,519.4c-27.4,25.5-82.3,58.8-125.4,72.5c-82.3,29.4-52.9-47-274.4,676.1c-62.7,203.8-76.4,233.2-160.7,313.6c-105.8,103.9-199.9,137.2-382.2,137.2h-129.3v68.6c0,135.2-96,274.4-221.5,321.4C5302.9,3197.8,4603.3,3195.8,4536.6,3170.3z M5853.6,2374.7c23.5-27.4,231.2-656.5,231.2-699.6c0-5.9-490-11.8-1089.7-11.8c-1026.9,0-1087.7,2-1077.9,35.3c109.8,376.3,199.9,648.7,223.4,676.1c27.4,31.4,94.1,33.3,856.4,33.3C5759.6,2408,5826.2,2406,5853.6,2374.7z M3854.6,1330.1c82.3-23.5,160.7-113.7,180.3-207.7c29.4-139.2-103.9-301.8-245-301.8c-158.7,0-272.4,111.7-272.4,268.5c0,94.1,68.6,190.1,166.6,233.2C3756.6,1353.6,3764.5,1353.6,3854.6,1330.1z M6390.6,1298.7c199.9-131.3,123.5-446.8-115.6-472.3c-158.8-17.6-288.1,96-288.1,254.8C5986.9,1285,6218.1,1410.4,6390.6,1298.7z"/><path d="M3478.3,154.2c0-221.5,96-341,274.4-341c170.5,0,274.4,119.5,274.4,317.5c0,92.1-3.9,101.9-43.1,103.9c-25.5,0-148.9,11.7-274.4,25.5l-231.3,23.5V154.2z"/><path d="M6369.1,271.8c-64.7-7.8-186.2-21.6-268.5-29.4l-152.9-13.7V126.8c0-137.2,49-225.4,156.8-280.3c47-25.5,105.8-45.1,127.4-45.1c76.4,0,211.7,86.2,248.9,156.8c35.3,68.6,52.9,335.1,21.5,331.2C6492.5,287.5,6433.7,279.6,6369.1,271.8z"/>
</g>
</svg>