<?xml version="1.0" encoding="UTF-8" standalone="no" ?>
<!DOCTYPE svg PUBLIC "-//W3C//DTD SVG 1.1//EN" "http://www.w3.org/Graphics/SVG/1.1/DTD/svg11.dtd">
<svg xmlns="http://www.w3.org/2000/svg" xmlns:xlink="http://www.w3.org/1999/xlink" version="1.1" width="32" height="32"  viewBox="0 0 100 100" xml:space="preserve">
<desc>Created with Fabric.js 5.2.4</desc>
<defs>
</defs>
<g transform="matrix(1 0 0 1 50 50)" id="ed3182fa-432d-4f40-934c-475766303f84"  >
<rect style="stroke: none; stroke-width: 1; stroke-dasharray: none; stroke-linecap: butt; stroke-dashoffset: 0; stroke-linejoin: miter; stroke-miterlimit: 4; fill: rgb(255,255,255); fill-rule: nonzero; opacity: 1; visibility: hidden;" vector-effect="non-scaling-stroke"  x="-50" y="-50" rx="0" ry="0" width="100" height="100" />
</g>
<g transform="matrix(Infinity NaN NaN Infinity 0 0)" id="1a3415e0-f49d-4afe-b271-008bd40d8c27"  >
</g>
<g transform="matrix(0.09 0 0 0.09 50 50)"  >
<g style="" vector-effect="non-scaling-stroke"   >
		<g transform="matrix(0.1 0 0 -0.1 0 0)"  >
<path style="stroke: none; stroke-width: 1; stroke-dasharray: none; stroke-linecap: butt; stroke-dashoffset: 0; stroke-linejoin: miter; stroke-miterlimit: 4; fill: #fb9403; fill-rule: nonzero; opacity: 1;" vector-effect="non-scaling-stroke"  transform=" translate(-5000.04, -110.01)" d="M 4597.4 4993 C 4505.299999999999 4983.2 4328.9 4951.8 4205.4 4924.4 C 2941.2999999999997 4640.2 1920.2999999999997 3693.5999999999995 1549.8999999999996 2458.9999999999995 C 1430.3999999999996 2063.0999999999995 1410.7999999999997 1906.2999999999995 1410.7999999999997 1359.4999999999995 C 1412.7999999999997 851.8999999999995 1432.3999999999996 655.8999999999995 1522.4999999999998 242.39999999999964 C 1887 -1433.2 3060.9 -3204.9 4752.2 -4627.7 C 4997.2 -4833.5 4979.5 -4829.599999999999 5148.099999999999 -4694.3 C 6427.8 -3661.5 7572.4 -2183.8 8117.2 -857 C 8546.4 187.5999999999999 8693.4 1289 8515 2141.5 C 8238.7 3480 7211.8 4559.8 5898.7 4896.9 C 5520.5 4994.9 4965.8 5036.1 4597.4 4993 z M 5420.5 4218.8 C 5951.6 4128.6 6459.2 3873.9 6855.1 3505.4 C 7194.1 3187.9 7450.900000000001 2795.9 7597.900000000001 2368.7 C 7690.000000000001 2104.1 7731.200000000001 1874.7999999999997 7744.900000000001 1565.1999999999998 C 7776.3 753.8999999999999 7490.1 30.699999999999818 6912.000000000001 -543.5 C 6520.000000000001 -931.5 6012.400000000001 -1198.1 5448.000000000001 -1307.8 C 5205.000000000001 -1356.8 4691.500000000001 -1356.8 4448.500000000001 -1307.8 C 3292.2 -1080.5 2441.6 -239.7 2190.7 920.5 C 2139.7999999999997 1153.7 2141.7 1761.2 2192.7 1996.4 C 2316.2 2566.7 2561.1 3019.4 2968.7999999999997 3429 C 3425.3999999999996 3885.6 3929.0999999999995 4138.4 4595.4 4238.4 C 4740.4 4260 5252 4248.2 5420.5 4218.8 z" stroke-linecap="round" />
</g>
		<g transform="matrix(0.1 0 0 -0.1 -2.73 -165.26)"  >
<path style="stroke: none; stroke-width: 1; stroke-dasharray: none; stroke-linecap: butt; stroke-dashoffset: 0; stroke-linejoin: miter; stroke-miterlimit: 4; fill: #fb9403; fill-rule: nonzero; opacity: 1;" vector-effect="non-scaling-stroke"  transform=" translate(-4972.7, -1762.64)" d="M 4536.6 3170.3 C 4430.8 3127.2000000000003 4364.1 3029.2000000000003 4342.6 2880.3 L 4330.8 2790.1000000000004 L 4203.400000000001 2778.3 C 4054.5000000000005 2764.6000000000004 3938.8000000000006 2711.7000000000003 3854.6000000000004 2615.6000000000004 C 3793.8 2545.0000000000005 3752.7000000000003 2435.3 3593.9000000000005 1894.4000000000003 C 3531.2000000000007 1678.8000000000004 3523.3000000000006 1663.1000000000004 3478.3000000000006 1663.1000000000004 C 3397.9000000000005 1661.1000000000004 3272.5000000000005 1594.5000000000005 3221.600000000001 1524.0000000000005 C 3176.500000000001 1459.3000000000004 3174.600000000001 1447.6000000000004 3174.600000000001 1063.4000000000005 L 3174.600000000001 671.4000000000005 L 3227.500000000001 591.0000000000006 C 3317.600000000001 455.8000000000006 3386.2000000000007 434.20000000000056 3909.500000000001 389.1000000000006 C 4783.600000000001 314.6000000000006 5324.500000000001 316.6000000000006 6196.6 398.9000000000006 C 6514.1 430.3000000000006 6576.8 445.9000000000006 6651.3 512.6000000000006 C 6753.2 606.7000000000006 6770.8 683.1000000000006 6770.8 1061.3000000000006 C 6770.8 1435.6000000000006 6759.1 1496.4000000000005 6666.900000000001 1580.7000000000007 C 6639.500000000001 1606.2000000000007 6584.6 1639.5000000000007 6541.500000000001 1653.2000000000007 C 6459.200000000001 1682.6000000000008 6488.600000000001 1606.2000000000007 6267.100000000001 2329.3000000000006 C 6204.4000000000015 2533.100000000001 6190.700000000002 2562.5000000000005 6106.4000000000015 2642.9000000000005 C 6000.600000000001 2746.8000000000006 5906.500000000002 2780.1000000000004 5724.200000000002 2780.1000000000004 L 5594.9000000000015 2780.1000000000004 L 5594.9000000000015 2848.7000000000003 C 5594.9000000000015 2983.9 5498.9000000000015 3123.1000000000004 5373.4000000000015 3170.1000000000004 C 5302.9 3197.8 4603.3 3195.8 4536.6 3170.3 z M 5853.6 2374.7 C 5877.1 2347.2999999999997 6084.8 1718.1999999999998 6084.8 1675.1 C 6084.8 1669.1999999999998 5594.8 1663.3 4995.1 1663.3 C 3968.2000000000003 1663.3 3907.4000000000005 1665.3 3917.2000000000003 1698.6 C 4027.0000000000005 2074.9 4117.1 2347.3 4140.6 2374.7 C 4168 2406.1 4234.700000000001 2408 4997 2408 C 5759.6 2408 5826.2 2406 5853.6 2374.7 z M 3854.6 1330.1 C 3936.9 1306.6 4015.2999999999997 1216.3999999999999 4034.9 1122.3999999999999 C 4064.3 983.1999999999998 3931 820.5999999999999 3789.9 820.5999999999999 C 3631.2000000000003 820.5999999999999 3517.5 932.3 3517.5 1089.1 C 3517.5 1183.1999999999998 3586.1 1279.1999999999998 3684.1 1322.3 C 3756.6 1353.6 3764.5 1353.6 3854.6 1330.1 z M 6390.6 1298.7 C 6590.5 1167.4 6514.1 851.9000000000001 6275 826.4000000000001 C 6116.2 808.8000000000001 5986.9 922.4000000000001 5986.9 1081.2 C 5986.9 1285 6218.1 1410.4 6390.6 1298.7 z" stroke-linecap="round" />
</g>
		<g transform="matrix(0.1 0 0 -0.1 -124.73 6.16)"  >
<path style="stroke: none; stroke-width: 1; stroke-dasharray: none; stroke-linecap: butt; stroke-dashoffset: 0; stroke-linejoin: miter; stroke-miterlimit: 4; fill: #fb9403; fill-rule: nonzero; opacity: 1;" vector-effect="non-scaling-stroke"  transform=" translate(-3752.7, -48.4)" d="M 3478.3 154.2 C 3478.3 -67.30000000000001 3574.3 -186.8 3752.7000000000003 -186.8 C 3923.2000000000003 -186.8 4027.1000000000004 -67.30000000000001 4027.1000000000004 130.7 C 4027.1000000000004 222.79999999999998 4023.2000000000003 232.6 3984.0000000000005 234.6 C 3958.5000000000005 234.6 3835.1000000000004 246.29999999999998 3709.6000000000004 260.1 L 3478.3 283.6 L 3478.3 154.2 z" stroke-linecap="round" />
</g>
		<g transform="matrix(0.1 0 0 -0.1 123.31 6.46)"  >
<path style="stroke: none; stroke-width: 1; stroke-dasharray: none; stroke-linecap: butt; stroke-dashoffset: 0; stroke-linejoin: miter; stroke-miterlimit: 4; fill: #fb9403; fill-rule: nonzero; opacity: 1;" vector-effect="non-scaling-stroke"  transform=" translate(-6233.16, -45.42)" d="M 6369.1 271.8 C 6304.400000000001 264 6182.900000000001 250.20000000000002 6100.6 242.4 L 5947.700000000001 228.70000000000002 L 5947.700000000001 126.8 C 5947.700000000001 -10.399999999999991 5996.700000000001 -98.60000000000001 6104.500000000001 -153.5 C 6151.500000000001 -179 6210.300000000001 -198.6 6231.900000000001 -198.6 C 6308.3 -198.6 6443.6 -112.39999999999999 6480.8 -41.79999999999998 C 6516.1 26.80000000000001 6533.7 293.30000000000007 6502.3 289.4 C 6492.5 287.5 6433.7 279.6 6369.1 271.8 z" stroke-linecap="round" />
</g>
</g>
</g>
</svg>